# This file uses centimeters as units for non-parametric coordinates.

mtllib Room.mtl
g default
v -7.997585 0.000000 10.077437
v 7.997585 0.000000 10.077437
v -7.997585 8.370000 10.077437
v 7.997585 8.370000 10.077437
v -7.997585 8.370000 -10.077437
v 7.997585 8.370000 -10.077437
v -7.997585 0.000000 -10.077437
v 7.997585 0.000000 -10.077437
vt 0.332591 0.667409
vt 0.332591 0.999023
vt 0.000977 0.667409
vt 0.000977 0.999023
vt 0.667307 0.667409
vt 0.667307 0.999023
vt 0.335692 0.667409
vt 0.335692 0.999023
vt 0.667307 0.000977
vt 0.667307 0.332591
vt 0.335692 0.000977
vt 0.335692 0.332591
vt 0.667307 0.334193
vt 0.667307 0.665807
vt 0.335692 0.334193
vt 0.335692 0.665807
vt 0.332591 0.000977
vt 0.332591 0.332591
vt 0.000977 0.000977
vt 0.000977 0.332591
vt 0.000977 0.665807
vt 0.000977 0.334193
vt 0.332591 0.665807
vt 0.332591 0.334193
vn 0.000000 0.000000 -1.000000
vn 0.000000 0.000000 -1.000000
vn 0.000000 0.000000 -1.000000
vn 0.000000 0.000000 -1.000000
vn 0.000000 -1.000000 0.000000
vn 0.000000 -1.000000 0.000000
vn 0.000000 -1.000000 0.000000
vn 0.000000 -1.000000 0.000000
vn 0.000000 0.000000 1.000000
vn 0.000000 0.000000 1.000000
vn 0.000000 0.000000 1.000000
vn 0.000000 0.000000 1.000000
vn 0.000000 1.000000 0.000000
vn 0.000000 1.000000 0.000000
vn 0.000000 1.000000 0.000000
vn 0.000000 1.000000 0.000000
vn -1.000000 0.000000 0.000000
vn -1.000000 0.000000 0.000000
vn -1.000000 0.000000 0.000000
vn -1.000000 0.000000 0.000000
vn 1.000000 0.000000 0.000000
vn 1.000000 0.000000 0.000000
vn 1.000000 0.000000 0.000000
vn 1.000000 0.000000 0.000000
s 1
g pCube1
usemtl initialShadingGroup
f 1/17/1 3/18/2 2/19/3
f 2/19/3 3/18/2 4/20/4
s 2
f 3/9/5 5/10/6 4/11/7
f 4/11/7 5/10/6 6/12/8
s 3
f 5/21/9 7/22/10 6/23/11
f 6/23/11 7/22/10 8/24/12
s 4
f 7/13/13 1/14/14 8/15/15
f 8/15/15 1/14/14 2/16/16
s 5
f 2/1/17 4/2/18 8/3/19
f 8/3/19 4/2/18 6/4/20
s 6
f 7/5/21 5/6/22 1/7/23
f 1/7/23 5/6/22 3/8/24
