# This file uses centimeters as units for non-parametric coordinates.

mtllib Paper3.mtl
g default
v -210.782628 0.034057 -297.951316
v -211.144201 0.034076 -297.605741
v -211.505546 0.034057 -297.260383
v -211.866665 0.034002 -296.915242
v -212.227558 0.033910 -296.570316
v -212.588228 0.033782 -296.225604
v -212.948678 0.033618 -295.881102
v -213.308912 0.033418 -295.536807
v -213.668935 0.033185 -295.192714
v -214.028752 0.032919 -294.848817
v -214.388370 0.032621 -294.505110
v -210.541750 0.034211 -297.697388
v -210.903324 0.034230 -297.351812
v -211.264669 0.034211 -297.006454
v -211.625786 0.034156 -296.661315
v -211.986752 0.034076 -296.316320
v -212.347342 0.033934 -295.971685
v -212.707786 0.033769 -295.627188
v -213.068013 0.033569 -295.282900
v -213.428027 0.033335 -294.938814
v -213.787835 0.033066 -294.594925
v -214.147443 0.032766 -294.251229
v -210.300766 0.034348 -297.443561
v -210.662225 0.034348 -297.098095
v -211.023684 0.034348 -296.752628
v -211.384799 0.034292 -296.407491
v -211.745761 0.034211 -296.062500
v -212.106385 0.034075 -295.717832
v -212.466788 0.033904 -295.373375
v -212.827009 0.033703 -295.029092
v -213.187016 0.033467 -294.685013
v -213.546816 0.033197 -294.341133
v -213.906414 0.032895 -293.997445
v -210.059672 0.034467 -297.189839
v -210.421246 0.034486 -296.844263
v -210.782590 0.034467 -296.498906
v -211.143704 0.034411 -296.153770
v -211.504589 0.034317 -295.808852
v -211.865247 0.034187 -295.464151
v -212.225683 0.034021 -295.119664
v -212.585898 0.033819 -294.775386
v -212.945899 0.033582 -294.431313
v -213.305692 0.033311 -294.087439
v -213.665282 0.033008 -293.743759
v -209.818468 0.034568 -296.936223
v -210.180043 0.034587 -296.590646
v -210.541386 0.034568 -296.245290
v -210.902499 0.034512 -295.900154
v -211.263337 0.034411 -295.555282
v -211.624037 0.034288 -295.210541
v -211.984469 0.034121 -294.866057
v -212.344630 0.033910 -294.521831
v -212.704676 0.033681 -294.177715
v -213.064525 0.033419 -293.833788
v -213.424046 0.033104 -293.490173
v -209.577152 0.034651 -296.682713
v -209.938728 0.034670 -296.337135
v -210.300071 0.034651 -295.991780
v -210.661135 0.034587 -295.646691
v -211.021971 0.034486 -295.301820
v -211.382717 0.034370 -294.957036
v -211.743200 0.034212 -294.612502
v -212.103369 0.034002 -294.268268
v -212.463398 0.033769 -293.924169
v -212.823126 0.033488 -293.580357
v -213.182721 0.033185 -293.236673
v -209.335724 0.034716 -296.429310
v -209.697300 0.034735 -296.083733
v -210.058643 0.034716 -295.738377
v -210.419820 0.034670 -295.393181
v -210.780652 0.034568 -295.048313
v -211.141285 0.034434 -294.703637
v -211.501711 0.034266 -294.359158
v -211.861997 0.034076 -294.014812
v -212.221878 0.033819 -293.670855
v -212.581681 0.033550 -293.326971
v -212.941255 0.033245 -292.983306
v -209.094183 0.034762 -296.176016
v -209.455759 0.034781 -295.830438
v -209.817101 0.034762 -295.485083
v -210.178212 0.034705 -295.139950
v -210.539090 0.034611 -294.795039
v -210.899662 0.034467 -294.450420
v -211.260202 0.034318 -294.105833
v -211.620367 0.034108 -293.761603
v -211.980353 0.033868 -293.417544
v -212.340052 0.033582 -293.073760
v -212.699699 0.033289 -292.730026
v -208.852528 0.034790 -295.922831
v -209.214161 0.034818 -295.577198
v -209.575446 0.034790 -295.231898
v -209.936565 0.034735 -294.886756
v -210.297510 0.034651 -294.541782
v -210.658111 0.034512 -294.197135
v -211.018507 0.034339 -293.852685
v -211.378622 0.034120 -293.508504
v -211.738747 0.033904 -293.164312
v -212.098466 0.033622 -292.820509
v -212.458018 0.033312 -292.476865
v -208.610875 0.034818 -295.669643
v -208.972334 0.034818 -295.324177
v -209.333793 0.034818 -294.978710
v -209.694739 0.034735 -294.633735
v -210.055683 0.034651 -294.288760
v -210.416285 0.034512 -293.944114
v -210.776735 0.034348 -293.599611
v -211.137010 0.034156 -293.255277
v -211.496920 0.033904 -292.911291
v -211.856639 0.033622 -292.567487
v -212.216191 0.033312 -292.223844
v -208.368874 0.034790 -295.416788
v -208.730507 0.034818 -295.071155
v -209.091793 0.034790 -294.725855
v -209.452912 0.034735 -294.380713
v -209.813857 0.034651 -294.035739
v -210.174458 0.034512 -293.691092
v -210.534854 0.034339 -293.346642
v -210.894968 0.034120 -293.002461
v -211.255094 0.033904 -292.658269
v -211.614813 0.033622 -292.314466
v -211.974365 0.033312 -291.970822
vt 0.000000 0.000000
vt 0.100000 0.000000
vt 0.200000 0.000000
vt 0.300000 0.000000
vt 0.400000 0.000000
vt 0.500000 0.000000
vt 0.600000 0.000000
vt 0.700000 0.000000
vt 0.800000 0.000000
vt 0.900000 0.000000
vt 1.000000 0.000000
vt 0.000000 0.100000
vt 0.100000 0.100000
vt 0.200000 0.100000
vt 0.300000 0.100000
vt 0.400000 0.100000
vt 0.500000 0.100000
vt 0.600000 0.100000
vt 0.700000 0.100000
vt 0.800000 0.100000
vt 0.900000 0.100000
vt 1.000000 0.100000
vt 0.000000 0.200000
vt 0.100000 0.200000
vt 0.200000 0.200000
vt 0.300000 0.200000
vt 0.400000 0.200000
vt 0.500000 0.200000
vt 0.600000 0.200000
vt 0.700000 0.200000
vt 0.800000 0.200000
vt 0.900000 0.200000
vt 1.000000 0.200000
vt 0.000000 0.300000
vt 0.100000 0.300000
vt 0.200000 0.300000
vt 0.300000 0.300000
vt 0.400000 0.300000
vt 0.500000 0.300000
vt 0.600000 0.300000
vt 0.700000 0.300000
vt 0.800000 0.300000
vt 0.900000 0.300000
vt 1.000000 0.300000
vt 0.000000 0.400000
vt 0.100000 0.400000
vt 0.200000 0.400000
vt 0.300000 0.400000
vt 0.400000 0.400000
vt 0.500000 0.400000
vt 0.600000 0.400000
vt 0.700000 0.400000
vt 0.800000 0.400000
vt 0.900000 0.400000
vt 1.000000 0.400000
vt 0.000000 0.500000
vt 0.100000 0.500000
vt 0.200000 0.500000
vt 0.300000 0.500000
vt 0.400000 0.500000
vt 0.500000 0.500000
vt 0.600000 0.500000
vt 0.700000 0.500000
vt 0.800000 0.500000
vt 0.900000 0.500000
vt 1.000000 0.500000
vt 0.000000 0.600000
vt 0.100000 0.600000
vt 0.200000 0.600000
vt 0.300000 0.600000
vt 0.400000 0.600000
vt 0.500000 0.600000
vt 0.600000 0.600000
vt 0.700000 0.600000
vt 0.800000 0.600000
vt 0.900000 0.600000
vt 1.000000 0.600000
vt 0.000000 0.700000
vt 0.100000 0.700000
vt 0.200000 0.700000
vt 0.300000 0.700000
vt 0.400000 0.700000
vt 0.500000 0.700000
vt 0.600000 0.700000
vt 0.700000 0.700000
vt 0.800000 0.700000
vt 0.900000 0.700000
vt 1.000000 0.700000
vt 0.000000 0.800000
vt 0.100000 0.800000
vt 0.200000 0.800000
vt 0.300000 0.800000
vt 0.400000 0.800000
vt 0.500000 0.800000
vt 0.600000 0.800000
vt 0.700000 0.800000
vt 0.800000 0.800000
vt 0.900000 0.800000
vt 1.000000 0.800000
vt 0.000000 0.900000
vt 0.100000 0.900000
vt 0.200000 0.900000
vt 0.300000 0.900000
vt 0.400000 0.900000
vt 0.500000 0.900000
vt 0.600000 0.900000
vt 0.700000 0.900000
vt 0.800000 0.900000
vt 0.900000 0.900000
vt 1.000000 0.900000
vt 0.000000 1.000000
vt 0.100000 1.000000
vt 0.200000 1.000000
vt 0.300000 1.000000
vt 0.400000 1.000000
vt 0.500000 1.000000
vt 0.600000 1.000000
vt 0.700000 1.000000
vt 0.800000 1.000000
vt 0.900000 1.000000
vt 1.000000 1.000000
vn -0.000278 1.000000 -0.000344
vn -0.000304 1.000000 -0.000319
vn -0.000278 1.000000 -0.000291
vn -0.000258 1.000000 -0.000310
vn -0.000358 1.000000 -0.000267
vn -0.000333 1.000000 -0.000248
vn -0.000412 1.000000 -0.000227
vn -0.000390 1.000000 -0.000207
vn -0.000475 1.000000 -0.000177
vn -0.000453 1.000000 -0.000155
vn -0.000525 1.000000 -0.000115
vn -0.000510 1.000000 -0.000094
vn -0.000564 1.000000 -0.000062
vn -0.000551 1.000000 -0.000044
vn -0.000613 1.000000 -0.000011
vn -0.000597 1.000000 0.000007
vn -0.000659 1.000000 0.000038
vn -0.000644 1.000000 0.000057
vn -0.000704 1.000000 0.000088
vn -0.000689 1.000000 0.000106
vn -0.000725 1.000000 0.000112
vn -0.000710 1.000000 0.000131
vn -0.000253 1.000000 -0.000264
vn -0.000239 1.000000 -0.000277
vn -0.000300 1.000000 -0.000219
vn -0.000350 1.000000 -0.000164
vn -0.000404 1.000000 -0.000105
vn -0.000468 1.000000 -0.000048
vn -0.000517 1.000000 -0.000005
vn -0.000565 1.000000 0.000044
vn -0.000612 1.000000 0.000094
vn -0.000658 1.000000 0.000143
vn -0.000681 1.000000 0.000167
vn -0.000227 1.000000 -0.000237
vn -0.000206 1.000000 -0.000256
vn -0.000273 1.000000 -0.000184
vn -0.000320 1.000000 -0.000120
vn -0.000366 1.000000 -0.000061
vn -0.000424 1.000000 -0.000011
vn -0.000480 1.000000 0.000037
vn -0.000527 1.000000 0.000086
vn -0.000577 1.000000 0.000127
vn -0.000632 1.000000 0.000174
vn -0.000658 1.000000 0.000201
vn -0.000182 1.000000 -0.000190
vn -0.000155 1.000000 -0.000216
vn -0.000236 1.000000 -0.000135
vn -0.000288 1.000000 -0.000073
vn -0.000333 1.000000 -0.000026
vn -0.000388 1.000000 0.000012
vn -0.000455 1.000000 0.000065
vn -0.000504 1.000000 0.000113
vn -0.000546 1.000000 0.000157
vn -0.000598 1.000000 0.000215
vn -0.000625 1.000000 0.000245
vn -0.000146 1.000000 -0.000153
vn -0.000118 1.000000 -0.000179
vn -0.000204 1.000000 -0.000102
vn -0.000268 1.000000 -0.000051
vn -0.000315 1.000000 -0.000005
vn -0.000354 1.000000 0.000043
vn -0.000416 1.000000 0.000099
vn -0.000474 1.000000 0.000147
vn -0.000513 1.000000 0.000206
vn -0.000556 1.000000 0.000262
vn -0.000580 1.000000 0.000284
vn -0.000110 1.000000 -0.000115
vn -0.000082 1.000000 -0.000141
vn -0.000164 1.000000 -0.000067
vn -0.000228 1.000000 -0.000017
vn -0.000283 1.000000 0.000040
vn -0.000317 1.000000 0.000093
vn -0.000365 1.000000 0.000142
vn -0.000427 1.000000 0.000202
vn -0.000478 1.000000 0.000260
vn -0.000517 1.000000 0.000300
vn -0.000536 1.000000 0.000317
vn -0.000078 1.000000 -0.000081
vn -0.000047 1.000000 -0.000111
vn -0.000127 1.000000 -0.000025
vn -0.000177 1.000000 0.000028
vn -0.000246 1.000000 0.000082
vn -0.000295 1.000000 0.000127
vn -0.000333 1.000000 0.000185
vn -0.000384 1.000000 0.000245
vn -0.000448 1.000000 0.000286
vn -0.000495 1.000000 0.000327
vn -0.000506 1.000000 0.000346
vn -0.000046 1.000000 -0.000048
vn -0.000019 1.000000 -0.000074
vn -0.000103 1.000000 0.000010
vn -0.000146 1.000000 0.000063
vn -0.000202 1.000000 0.000117
vn -0.000261 1.000000 0.000170
vn -0.000310 1.000000 0.000220
vn -0.000360 1.000000 0.000264
vn -0.000413 1.000000 0.000316
vn -0.000462 1.000000 0.000373
vn -0.000475 1.000000 0.000392
vn 0.000000 1.000000 -0.000000
vn 0.000020 1.000000 -0.000020
vn -0.000060 1.000000 0.000058
vn -0.000111 1.000000 0.000106
vn -0.000161 1.000000 0.000154
vn -0.000223 1.000000 0.000213
vn -0.000271 1.000000 0.000259
vn -0.000319 1.000000 0.000305
vn -0.000375 1.000000 0.000358
vn -0.000430 1.000000 0.000411
vn -0.000450 1.000000 0.000430
vn 0.000028 1.000000 0.000029
vn 0.000048 1.000000 0.000010
vn -0.000033 1.000000 0.000087
vn -0.000097 1.000000 0.000120
vn -0.000161 1.000000 0.000154
vn -0.000219 1.000000 0.000218
vn -0.000245 1.000000 0.000287
vn -0.000280 1.000000 0.000346
vn -0.000357 1.000000 0.000377
vn -0.000430 1.000000 0.000411
vn -0.000451 1.000000 0.000430
s 1
g pPlane3
usemtl Paper:pPlane1SG
f 1/1/1 2/2/2 13/13/3 12/12/4
f 2/2/2 3/3/5 14/14/6 13/13/3
f 3/3/5 4/4/7 15/15/8 14/14/6
f 4/4/7 5/5/9 16/16/10 15/15/8
f 5/5/9 6/6/11 17/17/12 16/16/10
f 6/6/11 7/7/13 18/18/14 17/17/12
f 7/7/13 8/8/15 19/19/16 18/18/14
f 8/8/15 9/9/17 20/20/18 19/19/16
f 9/9/17 10/10/19 21/21/20 20/20/18
f 10/10/19 11/11/21 22/22/22 21/21/20
f 12/12/4 13/13/3 24/24/23 23/23/24
f 13/13/3 14/14/6 25/25/25 24/24/23
f 14/14/6 15/15/8 26/26/26 25/25/25
f 15/15/8 16/16/10 27/27/27 26/26/26
f 16/16/10 17/17/12 28/28/28 27/27/27
f 17/17/12 18/18/14 29/29/29 28/28/28
f 18/18/14 19/19/16 30/30/30 29/29/29
f 19/19/16 20/20/18 31/31/31 30/30/30
f 20/20/18 21/21/20 32/32/32 31/31/31
f 21/21/20 22/22/22 33/33/33 32/32/32
f 23/23/24 24/24/23 35/35/34 34/34/35
f 24/24/23 25/25/25 36/36/36 35/35/34
f 25/25/25 26/26/26 37/37/37 36/36/36
f 26/26/26 27/27/27 38/38/38 37/37/37
f 27/27/27 28/28/28 39/39/39 38/38/38
f 28/28/28 29/29/29 40/40/40 39/39/39
f 29/29/29 30/30/30 41/41/41 40/40/40
f 30/30/30 31/31/31 42/42/42 41/41/41
f 31/31/31 32/32/32 43/43/43 42/42/42
f 32/32/32 33/33/33 44/44/44 43/43/43
f 34/34/35 35/35/34 46/46/45 45/45/46
f 35/35/34 36/36/36 47/47/47 46/46/45
f 36/36/36 37/37/37 48/48/48 47/47/47
f 37/37/37 38/38/38 49/49/49 48/48/48
f 38/38/38 39/39/39 50/50/50 49/49/49
f 39/39/39 40/40/40 51/51/51 50/50/50
f 40/40/40 41/41/41 52/52/52 51/51/51
f 41/41/41 42/42/42 53/53/53 52/52/52
f 42/42/42 43/43/43 54/54/54 53/53/53
f 43/43/43 44/44/44 55/55/55 54/54/54
f 45/45/46 46/46/45 57/57/56 56/56/57
f 46/46/45 47/47/47 58/58/58 57/57/56
f 47/47/47 48/48/48 59/59/59 58/58/58
f 48/48/48 49/49/49 60/60/60 59/59/59
f 49/49/49 50/50/50 61/61/61 60/60/60
f 50/50/50 51/51/51 62/62/62 61/61/61
f 51/51/51 52/52/52 63/63/63 62/62/62
f 52/52/52 53/53/53 64/64/64 63/63/63
f 53/53/53 54/54/54 65/65/65 64/64/64
f 54/54/54 55/55/55 66/66/66 65/65/65
f 56/56/57 57/57/56 68/68/67 67/67/68
f 57/57/56 58/58/58 69/69/69 68/68/67
f 58/58/58 59/59/59 70/70/70 69/69/69
f 59/59/59 60/60/60 71/71/71 70/70/70
f 60/60/60 61/61/61 72/72/72 71/71/71
f 61/61/61 62/62/62 73/73/73 72/72/72
f 62/62/62 63/63/63 74/74/74 73/73/73
f 63/63/63 64/64/64 75/75/75 74/74/74
f 64/64/64 65/65/65 76/76/76 75/75/75
f 65/65/65 66/66/66 77/77/77 76/76/76
f 67/67/68 68/68/67 79/79/78 78/78/79
f 68/68/67 69/69/69 80/80/80 79/79/78
f 69/69/69 70/70/70 81/81/81 80/80/80
f 70/70/70 71/71/71 82/82/82 81/81/81
f 71/71/71 72/72/72 83/83/83 82/82/82
f 72/72/72 73/73/73 84/84/84 83/83/83
f 73/73/73 74/74/74 85/85/85 84/84/84
f 74/74/74 75/75/75 86/86/86 85/85/85
f 75/75/75 76/76/76 87/87/87 86/86/86
f 76/76/76 77/77/77 88/88/88 87/87/87
f 78/78/79 79/79/78 90/90/89 89/89/90
f 79/79/78 80/80/80 91/91/91 90/90/89
f 80/80/80 81/81/81 92/92/92 91/91/91
f 81/81/81 82/82/82 93/93/93 92/92/92
f 82/82/82 83/83/83 94/94/94 93/93/93
f 83/83/83 84/84/84 95/95/95 94/94/94
f 84/84/84 85/85/85 96/96/96 95/95/95
f 85/85/85 86/86/86 97/97/97 96/96/96
f 86/86/86 87/87/87 98/98/98 97/97/97
f 87/87/87 88/88/88 99/99/99 98/98/98
f 89/89/90 90/90/89 101/101/100 100/100/101
f 90/90/89 91/91/91 102/102/102 101/101/100
f 91/91/91 92/92/92 103/103/103 102/102/102
f 92/92/92 93/93/93 104/104/104 103/103/103
f 93/93/93 94/94/94 105/105/105 104/104/104
f 94/94/94 95/95/95 106/106/106 105/105/105
f 95/95/95 96/96/96 107/107/107 106/106/106
f 96/96/96 97/97/97 108/108/108 107/107/107
f 97/97/97 98/98/98 109/109/109 108/108/108
f 98/98/98 99/99/99 110/110/110 109/109/109
f 100/100/101 101/101/100 112/112/111 111/111/112
f 101/101/100 102/102/102 113/113/113 112/112/111
f 102/102/102 103/103/103 114/114/114 113/113/113
f 103/103/103 104/104/104 115/115/115 114/114/114
f 104/104/104 105/105/105 116/116/116 115/115/115
f 105/105/105 106/106/106 117/117/117 116/116/116
f 106/106/106 107/107/107 118/118/118 117/117/117
f 107/107/107 108/108/108 119/119/119 118/118/118
f 108/108/108 109/109/109 120/120/120 119/119/119
f 109/109/109 110/110/110 121/121/121 120/120/120
