# This file uses centimeters as units for non-parametric coordinates.

mtllib Paper5.mtl
g default
v 94.107160 12.455114 126.819987
v 94.320316 12.455133 127.272449
v 94.533337 12.455114 127.724627
v 94.746225 12.455059 128.176520
v 94.958980 12.454967 128.628132
v 95.171603 12.454839 129.079464
v 95.384097 12.454675 129.530521
v 95.596463 12.454475 129.981307
v 95.808705 12.454242 130.431829
v 96.020825 12.453976 130.882094
v 96.232828 12.453678 131.332110
v 94.424343 12.455268 126.672013
v 94.637499 12.455287 127.124476
v 94.850521 12.455268 127.576652
v 95.063407 12.455213 128.028544
v 95.276205 12.455133 128.480247
v 95.488781 12.454991 128.931478
v 95.701271 12.454826 129.382528
v 95.913633 12.454626 129.833305
v 96.125870 12.454392 130.283817
v 96.337985 12.454123 130.734071
v 96.549982 12.453823 131.184073
v 94.741464 12.455405 126.523904
v 94.954552 12.455405 126.976224
v 95.167641 12.455405 127.428544
v 95.380527 12.455349 127.880433
v 95.593322 12.455268 128.332130
v 95.805918 12.455132 128.783404
v 96.018384 12.454961 129.234402
v 96.230742 12.454760 129.685172
v 96.442975 12.454524 130.135675
v 96.655085 12.454254 130.585918
v 96.867077 12.453952 131.035910
v 95.058520 12.455524 126.375659
v 95.271676 12.455543 126.828123
v 95.484697 12.455524 127.280299
v 95.697582 12.455468 127.732186
v 95.910332 12.455374 128.183787
v 96.122948 12.455244 128.635105
v 96.335433 12.455078 129.086143
v 96.547788 12.454876 129.536906
v 96.760017 12.454639 129.987402
v 96.972123 12.454368 130.437636
v 97.184110 12.454065 130.887617
v 95.375511 12.455625 126.227276
v 95.588667 12.455644 126.679741
v 95.801688 12.455625 127.131916
v 96.014572 12.455569 127.583802
v 96.227294 12.455468 128.035344
v 96.439935 12.455345 128.486714
v 96.652418 12.455178 128.937748
v 96.864741 12.454967 129.388443
v 97.076997 12.454738 129.838994
v 97.289136 12.454476 130.289299
v 97.501082 12.454161 130.739193
v 95.692436 12.455708 126.078754
v 95.905593 12.455727 126.531219
v 96.118613 12.455708 126.983393
v 96.331469 12.455644 127.435219
v 96.544190 12.455543 127.886759
v 96.756858 12.455427 128.338185
v 96.969371 12.455269 128.789284
v 97.181699 12.455059 129.239989
v 97.393944 12.454826 129.690519
v 97.606012 12.454545 130.140672
v 97.818001 12.454242 130.590659
v 96.009295 12.455773 125.930090
v 96.222452 12.455792 126.382556
v 96.435472 12.455773 126.834730
v 96.648394 12.455727 127.286697
v 96.861113 12.455625 127.738232
v 97.073714 12.455491 128.189517
v 97.286194 12.455323 128.640544
v 97.498591 12.455133 129.091396
v 97.710749 12.454876 129.541740
v 97.922861 12.454607 129.991988
v 98.134838 12.454302 130.441949
v 96.326087 12.455819 125.781285
v 96.539244 12.455838 126.233751
v 96.752264 12.455819 126.685925
v 96.965147 12.455762 127.137808
v 97.177893 12.455668 127.589401
v 97.390458 12.455524 128.040610
v 97.603005 12.455375 128.491779
v 97.815331 12.455165 128.942480
v 98.027551 12.454925 129.392956
v 98.239602 12.454639 129.843074
v 98.451621 12.454345 130.293125
v 96.642812 12.455847 125.632338
v 96.856003 12.455875 126.084875
v 97.068989 12.455847 126.536977
v 97.281877 12.455792 126.988871
v 97.494662 12.455708 127.440547
v 97.707245 12.455569 127.891793
v 97.919706 12.455396 128.342782
v 98.132002 12.455177 128.793419
v 98.344304 12.454961 129.244070
v 98.556367 12.454679 129.694212
v 98.768331 12.454369 130.144145
v 96.959538 12.455875 125.483393
v 97.172627 12.455875 125.935713
v 97.385715 12.455875 126.388033
v 97.598501 12.455792 126.839709
v 97.811286 12.455708 127.291385
v 98.023869 12.455569 127.742631
v 98.236363 12.455405 128.193689
v 98.448753 12.455213 128.644527
v 98.660928 12.454961 129.094908
v 98.872991 12.454679 129.545050
v 99.084955 12.454369 129.994983
v 97.276059 12.455847 125.334014
v 97.489250 12.455875 125.786551
v 97.702236 12.455847 126.238653
v 97.915124 12.455792 126.690547
v 98.127910 12.455708 127.142223
v 98.340492 12.455569 127.593469
v 98.552954 12.455396 128.044458
v 98.765250 12.455177 128.495095
v 98.977552 12.454961 128.945746
v 99.189615 12.454679 129.395888
v 99.401579 12.454369 129.845821
vt 0.000000 0.000000
vt 0.100000 0.000000
vt 0.200000 0.000000
vt 0.300000 0.000000
vt 0.400000 0.000000
vt 0.500000 0.000000
vt 0.600000 0.000000
vt 0.700000 0.000000
vt 0.800000 0.000000
vt 0.900000 0.000000
vt 1.000000 0.000000
vt 0.000000 0.100000
vt 0.100000 0.100000
vt 0.200000 0.100000
vt 0.300000 0.100000
vt 0.400000 0.100000
vt 0.500000 0.100000
vt 0.600000 0.100000
vt 0.700000 0.100000
vt 0.800000 0.100000
vt 0.900000 0.100000
vt 1.000000 0.100000
vt 0.000000 0.200000
vt 0.100000 0.200000
vt 0.200000 0.200000
vt 0.300000 0.200000
vt 0.400000 0.200000
vt 0.500000 0.200000
vt 0.600000 0.200000
vt 0.700000 0.200000
vt 0.800000 0.200000
vt 0.900000 0.200000
vt 1.000000 0.200000
vt 0.000000 0.300000
vt 0.100000 0.300000
vt 0.200000 0.300000
vt 0.300000 0.300000
vt 0.400000 0.300000
vt 0.500000 0.300000
vt 0.600000 0.300000
vt 0.700000 0.300000
vt 0.800000 0.300000
vt 0.900000 0.300000
vt 1.000000 0.300000
vt 0.000000 0.400000
vt 0.100000 0.400000
vt 0.200000 0.400000
vt 0.300000 0.400000
vt 0.400000 0.400000
vt 0.500000 0.400000
vt 0.600000 0.400000
vt 0.700000 0.400000
vt 0.800000 0.400000
vt 0.900000 0.400000
vt 1.000000 0.400000
vt 0.000000 0.500000
vt 0.100000 0.500000
vt 0.200000 0.500000
vt 0.300000 0.500000
vt 0.400000 0.500000
vt 0.500000 0.500000
vt 0.600000 0.500000
vt 0.700000 0.500000
vt 0.800000 0.500000
vt 0.900000 0.500000
vt 1.000000 0.500000
vt 0.000000 0.600000
vt 0.100000 0.600000
vt 0.200000 0.600000
vt 0.300000 0.600000
vt 0.400000 0.600000
vt 0.500000 0.600000
vt 0.600000 0.600000
vt 0.700000 0.600000
vt 0.800000 0.600000
vt 0.900000 0.600000
vt 1.000000 0.600000
vt 0.000000 0.700000
vt 0.100000 0.700000
vt 0.200000 0.700000
vt 0.300000 0.700000
vt 0.400000 0.700000
vt 0.500000 0.700000
vt 0.600000 0.700000
vt 0.700000 0.700000
vt 0.800000 0.700000
vt 0.900000 0.700000
vt 1.000000 0.700000
vt 0.000000 0.800000
vt 0.100000 0.800000
vt 0.200000 0.800000
vt 0.300000 0.800000
vt 0.400000 0.800000
vt 0.500000 0.800000
vt 0.600000 0.800000
vt 0.700000 0.800000
vt 0.800000 0.800000
vt 0.900000 0.800000
vt 1.000000 0.800000
vt 0.000000 0.900000
vt 0.100000 0.900000
vt 0.200000 0.900000
vt 0.300000 0.900000
vt 0.400000 0.900000
vt 0.500000 0.900000
vt 0.600000 0.900000
vt 0.700000 0.900000
vt 0.800000 0.900000
vt 0.900000 0.900000
vt 1.000000 0.900000
vt 0.000000 1.000000
vt 0.100000 1.000000
vt 0.200000 1.000000
vt 0.300000 1.000000
vt 0.400000 1.000000
vt 0.500000 1.000000
vt 0.600000 1.000000
vt 0.700000 1.000000
vt 0.800000 1.000000
vt 0.900000 1.000000
vt 1.000000 1.000000
vn -0.000414 1.000000 0.000154
vn -0.000399 1.000000 0.000188
vn -0.000364 1.000000 0.000171
vn -0.000376 1.000000 0.000146
vn -0.000367 1.000000 0.000255
vn -0.000340 1.000000 0.000237
vn -0.000346 1.000000 0.000319
vn -0.000320 1.000000 0.000304
vn -0.000319 1.000000 0.000395
vn -0.000290 1.000000 0.000380
vn -0.000275 1.000000 0.000461
vn -0.000251 1.000000 0.000454
vn -0.000237 1.000000 0.000516
vn -0.000216 1.000000 0.000508
vn -0.000205 1.000000 0.000578
vn -0.000183 1.000000 0.000568
vn -0.000173 1.000000 0.000638
vn -0.000150 1.000000 0.000629
vn -0.000140 1.000000 0.000695
vn -0.000118 1.000000 0.000687
vn -0.000123 1.000000 0.000723
vn -0.000101 1.000000 0.000715
vn -0.000331 1.000000 0.000156
vn -0.000339 1.000000 0.000139
vn -0.000303 1.000000 0.000215
vn -0.000266 1.000000 0.000280
vn -0.000227 1.000000 0.000350
vn -0.000194 1.000000 0.000429
vn -0.000168 1.000000 0.000489
vn -0.000137 1.000000 0.000550
vn -0.000105 1.000000 0.000611
vn -0.000073 1.000000 0.000670
vn -0.000058 1.000000 0.000698
vn -0.000297 1.000000 0.000140
vn -0.000309 1.000000 0.000114
vn -0.000261 1.000000 0.000200
vn -0.000215 1.000000 0.000265
vn -0.000174 1.000000 0.000328
vn -0.000145 1.000000 0.000398
vn -0.000117 1.000000 0.000467
vn -0.000086 1.000000 0.000527
vn -0.000062 1.000000 0.000588
vn -0.000035 1.000000 0.000654
vn -0.000018 1.000000 0.000688
vn -0.000238 1.000000 0.000112
vn -0.000254 1.000000 0.000078
vn -0.000203 1.000000 0.000181
vn -0.000161 1.000000 0.000250
vn -0.000130 1.000000 0.000307
vn -0.000111 1.000000 0.000371
vn -0.000082 1.000000 0.000452
vn -0.000053 1.000000 0.000513
vn -0.000024 1.000000 0.000567
vn 0.000014 1.000000 0.000635
vn 0.000035 1.000000 0.000670
vn -0.000191 1.000000 0.000090
vn -0.000207 1.000000 0.000056
vn -0.000162 1.000000 0.000161
vn -0.000133 1.000000 0.000239
vn -0.000105 1.000000 0.000297
vn -0.000071 1.000000 0.000349
vn -0.000038 1.000000 0.000426
vn -0.000010 1.000000 0.000496
vn 0.000032 1.000000 0.000552
vn 0.000072 1.000000 0.000610
vn 0.000086 1.000000 0.000641
vn -0.000144 1.000000 0.000068
vn -0.000160 1.000000 0.000033
vn -0.000115 1.000000 0.000134
vn -0.000088 1.000000 0.000211
vn -0.000052 1.000000 0.000281
vn -0.000013 1.000000 0.000330
vn 0.000020 1.000000 0.000391
vn 0.000056 1.000000 0.000469
vn 0.000095 1.000000 0.000536
vn 0.000121 1.000000 0.000585
vn 0.000130 1.000000 0.000609
vn -0.000102 1.000000 0.000048
vn -0.000120 1.000000 0.000010
vn -0.000064 1.000000 0.000113
vn -0.000030 1.000000 0.000177
vn -0.000000 1.000000 0.000259
vn 0.000027 1.000000 0.000320
vn 0.000070 1.000000 0.000374
vn 0.000111 1.000000 0.000442
vn 0.000130 1.000000 0.000515
vn 0.000153 1.000000 0.000574
vn 0.000167 1.000000 0.000589
vn -0.000060 1.000000 0.000028
vn -0.000076 1.000000 -0.000006
vn -0.000023 1.000000 0.000101
vn 0.000014 1.000000 0.000158
vn 0.000047 1.000000 0.000229
vn 0.000078 1.000000 0.000301
vn 0.000111 1.000000 0.000363
vn 0.000136 1.000000 0.000425
vn 0.000169 1.000000 0.000492
vn 0.000208 1.000000 0.000556
vn 0.000221 1.000000 0.000575
vn -0.000000 1.000000 -0.000000
vn -0.000012 1.000000 -0.000026
vn 0.000036 1.000000 0.000076
vn 0.000065 1.000000 0.000138
vn 0.000095 1.000000 0.000202
vn 0.000131 1.000000 0.000279
vn 0.000160 1.000000 0.000339
vn 0.000188 1.000000 0.000399
vn 0.000221 1.000000 0.000469
vn 0.000254 1.000000 0.000538
vn 0.000265 1.000000 0.000563
vn 0.000036 1.000000 -0.000017
vn 0.000024 1.000000 -0.000043
vn 0.000072 1.000000 0.000058
vn 0.000083 1.000000 0.000130
vn 0.000095 1.000000 0.000202
vn 0.000137 1.000000 0.000276
vn 0.000194 1.000000 0.000323
vn 0.000239 1.000000 0.000375
vn 0.000244 1.000000 0.000458
vn 0.000253 1.000000 0.000538
vn 0.000265 1.000000 0.000564
s 1
g pPlane5
usemtl Paper:pPlane1SG
f 1/1/1 2/2/2 13/13/3 12/12/4
f 2/2/2 3/3/5 14/14/6 13/13/3
f 3/3/5 4/4/7 15/15/8 14/14/6
f 4/4/7 5/5/9 16/16/10 15/15/8
f 5/5/9 6/6/11 17/17/12 16/16/10
f 6/6/11 7/7/13 18/18/14 17/17/12
f 7/7/13 8/8/15 19/19/16 18/18/14
f 8/8/15 9/9/17 20/20/18 19/19/16
f 9/9/17 10/10/19 21/21/20 20/20/18
f 10/10/19 11/11/21 22/22/22 21/21/20
f 12/12/4 13/13/3 24/24/23 23/23/24
f 13/13/3 14/14/6 25/25/25 24/24/23
f 14/14/6 15/15/8 26/26/26 25/25/25
f 15/15/8 16/16/10 27/27/27 26/26/26
f 16/16/10 17/17/12 28/28/28 27/27/27
f 17/17/12 18/18/14 29/29/29 28/28/28
f 18/18/14 19/19/16 30/30/30 29/29/29
f 19/19/16 20/20/18 31/31/31 30/30/30
f 20/20/18 21/21/20 32/32/32 31/31/31
f 21/21/20 22/22/22 33/33/33 32/32/32
f 23/23/24 24/24/23 35/35/34 34/34/35
f 24/24/23 25/25/25 36/36/36 35/35/34
f 25/25/25 26/26/26 37/37/37 36/36/36
f 26/26/26 27/27/27 38/38/38 37/37/37
f 27/27/27 28/28/28 39/39/39 38/38/38
f 28/28/28 29/29/29 40/40/40 39/39/39
f 29/29/29 30/30/30 41/41/41 40/40/40
f 30/30/30 31/31/31 42/42/42 41/41/41
f 31/31/31 32/32/32 43/43/43 42/42/42
f 32/32/32 33/33/33 44/44/44 43/43/43
f 34/34/35 35/35/34 46/46/45 45/45/46
f 35/35/34 36/36/36 47/47/47 46/46/45
f 36/36/36 37/37/37 48/48/48 47/47/47
f 37/37/37 38/38/38 49/49/49 48/48/48
f 38/38/38 39/39/39 50/50/50 49/49/49
f 39/39/39 40/40/40 51/51/51 50/50/50
f 40/40/40 41/41/41 52/52/52 51/51/51
f 41/41/41 42/42/42 53/53/53 52/52/52
f 42/42/42 43/43/43 54/54/54 53/53/53
f 43/43/43 44/44/44 55/55/55 54/54/54
f 45/45/46 46/46/45 57/57/56 56/56/57
f 46/46/45 47/47/47 58/58/58 57/57/56
f 47/47/47 48/48/48 59/59/59 58/58/58
f 48/48/48 49/49/49 60/60/60 59/59/59
f 49/49/49 50/50/50 61/61/61 60/60/60
f 50/50/50 51/51/51 62/62/62 61/61/61
f 51/51/51 52/52/52 63/63/63 62/62/62
f 52/52/52 53/53/53 64/64/64 63/63/63
f 53/53/53 54/54/54 65/65/65 64/64/64
f 54/54/54 55/55/55 66/66/66 65/65/65
f 56/56/57 57/57/56 68/68/67 67/67/68
f 57/57/56 58/58/58 69/69/69 68/68/67
f 58/58/58 59/59/59 70/70/70 69/69/69
f 59/59/59 60/60/60 71/71/71 70/70/70
f 60/60/60 61/61/61 72/72/72 71/71/71
f 61/61/61 62/62/62 73/73/73 72/72/72
f 62/62/62 63/63/63 74/74/74 73/73/73
f 63/63/63 64/64/64 75/75/75 74/74/74
f 64/64/64 65/65/65 76/76/76 75/75/75
f 65/65/65 66/66/66 77/77/77 76/76/76
f 67/67/68 68/68/67 79/79/78 78/78/79
f 68/68/67 69/69/69 80/80/80 79/79/78
f 69/69/69 70/70/70 81/81/81 80/80/80
f 70/70/70 71/71/71 82/82/82 81/81/81
f 71/71/71 72/72/72 83/83/83 82/82/82
f 72/72/72 73/73/73 84/84/84 83/83/83
f 73/73/73 74/74/74 85/85/85 84/84/84
f 74/74/74 75/75/75 86/86/86 85/85/85
f 75/75/75 76/76/76 87/87/87 86/86/86
f 76/76/76 77/77/77 88/88/88 87/87/87
f 78/78/79 79/79/78 90/90/89 89/89/90
f 79/79/78 80/80/80 91/91/91 90/90/89
f 80/80/80 81/81/81 92/92/92 91/91/91
f 81/81/81 82/82/82 93/93/93 92/92/92
f 82/82/82 83/83/83 94/94/94 93/93/93
f 83/83/83 84/84/84 95/95/95 94/94/94
f 84/84/84 85/85/85 96/96/96 95/95/95
f 85/85/85 86/86/86 97/97/97 96/96/96
f 86/86/86 87/87/87 98/98/98 97/97/97
f 87/87/87 88/88/88 99/99/99 98/98/98
f 89/89/90 90/90/89 101/101/100 100/100/101
f 90/90/89 91/91/91 102/102/102 101/101/100
f 91/91/91 92/92/92 103/103/103 102/102/102
f 92/92/92 93/93/93 104/104/104 103/103/103
f 93/93/93 94/94/94 105/105/105 104/104/104
f 94/94/94 95/95/95 106/106/106 105/105/105
f 95/95/95 96/96/96 107/107/107 106/106/106
f 96/96/96 97/97/97 108/108/108 107/107/107
f 97/97/97 98/98/98 109/109/109 108/108/108
f 98/98/98 99/99/99 110/110/110 109/109/109
f 100/100/101 101/101/100 112/112/111 111/111/112
f 101/101/100 102/102/102 113/113/113 112/112/111
f 102/102/102 103/103/103 114/114/114 113/113/113
f 103/103/103 104/104/104 115/115/115 114/114/114
f 104/104/104 105/105/105 116/116/116 115/115/115
f 105/105/105 106/106/106 117/117/117 116/116/116
f 106/106/106 107/107/107 118/118/118 117/117/117
f 107/107/107 108/108/108 119/119/119 118/118/118
f 108/108/108 109/109/109 120/120/120 119/119/119
f 109/109/109 110/110/110 121/121/121 120/120/120
